<?xml version="1.0" encoding="utf-8"?>
<!-- Generator: Adobe Illustrator 25.2.3, SVG Export Plug-In . SVG Version: 6.00 Build 0)  -->
<svg version="1.1" id="Capa_1" xmlns="http://www.w3.org/2000/svg" xmlns:xlink="http://www.w3.org/1999/xlink" x="0px" y="0px"
	 viewBox="0 0 512 512" style="enable-background:new 0 0 512 512;" xml:space="preserve">
<style type="text/css">
	.st0{fill-rule:evenodd;clip-rule:evenodd;fill:#FFE07D;}
	.st1{fill-rule:evenodd;clip-rule:evenodd;fill:#FF8086;}
	.st2{fill-rule:evenodd;clip-rule:evenodd;fill:#FFC269;}
	.st3{fill-rule:evenodd;clip-rule:evenodd;fill:#F76672;}
	.st4{fill-rule:evenodd;clip-rule:evenodd;fill:#6F6571;}
	.st5{fill-rule:evenodd;clip-rule:evenodd;fill:#ECEAEC;}
	.st6{fill-rule:evenodd;clip-rule:evenodd;fill:#DAD8DB;}
	.st7{fill-rule:evenodd;clip-rule:evenodd;fill:#FFECE4;}
	.st8{fill-rule:evenodd;clip-rule:evenodd;fill:#5D5360;}
	.st9{fill-rule:evenodd;clip-rule:evenodd;fill:#FFDDCE;}
</style>
<g>
	<g>
		<path class="st0" d="M130,228.3v65.4l-35.1,14.1L67,293.7H20.3C9.1,293.7,0,284.6,0,273.4l0-45.2L130,228.3L130,228.3z"/>
	</g>
	<g>
		<path class="st0" d="M130,183v33.6H0L0,183c0-11.2,9.1-20.3,20.3-20.3h89.4C120.9,162.7,130,171.9,130,183z"/>
	</g>
	<g>
		<path class="st1" d="M130,238.3H0l0-31.9h130V238.3z"/>
	</g>
	<g>
		<path class="st2" d="M27.1,206.5V183c0-11.2,9.1-20.3,20.3-20.3H20.3c-3.5,0-6.9,0.9-9.8,2.5C4.3,168.7,0,175.4,0,183l0,23.4h10.5
			H27.1L27.1,206.5z"/>
	</g>
	<g>
		<path class="st3" d="M27.1,228.3v-11.7v-10.1H10.5H0l0,10.1l0,11.7l0,10.1h10.5h16.6V228.3z"/>
	</g>
	<g>
		<path class="st2" d="M10.5,238.3H0l0,35.1c0,7.6,4.3,14.3,10.5,17.8c2.9,1.6,6.2,2.5,9.8,2.5h27.1c-11.2,0-20.3-9.1-20.3-20.3
			l0-35.1H10.5z"/>
	</g>
	<g>
		<path class="st4" d="M130,293.7h77.7c6.4,9.6,17.8,14.1,35.3,14.1l27.7,0c13.9,0,13.9,9.3,13.9,27.5h-205
			c-6.9,0-12.6-5.7-12.6-12.6v-29L130,293.7L130,293.7z"/>
	</g>
	<g>
		<path class="st0" d="M259.9,335.3c17.6,54.4-7.6,41.2,70.7,70.8h38.8c-4.3,11.7-9.2,23.4-14.4,35.2H217.5
			c-12.8-48.2-137.4-64.8-149.6-23.1c-7.3-42.3,1.2-64.4,11.7-82.9L259.9,335.3L259.9,335.3z"/>
	</g>
	<g>
		<path class="st5" d="M275.6,179.9c0.3-16.6-1.5-32-6.5-43.8c-0.7,0-13.6-20.6-13.6-20.6s-9.8,2.7-19.4,10
			c-26.6,13-57.8,53.1-59.4,136.7l44.2,15.5l39.6-15.5c4.1-11.9,7.7-25.8,10.4-40L275.6,179.9z"/>
	</g>
	<g>
		<path class="st1" d="M176.8,262.1c-0.7,13.8,1.2,24.2,6.1,31.6c6.4,9.6,17.8,14.1,35.3,14.1l27.7,0c13.9,0,13.9,9.3,13.9,27.5
			v36.9l24.7,11.3l19-11.3v-47.7c0-45.5-23.7-60.2-43-62.3L176.8,262.1L176.8,262.1z"/>
	</g>
	<g>
		<path class="st6" d="M200.8,262.1c1.3-72.4,24.9-112.1,48.5-129.9c-4.8-1.7-9.2-4-13.1-6.8c-26.6,13-57.8,53.1-59.4,136.7
			L200.8,262.1z"/>
	</g>
	<g>
		<path class="st3" d="M182.9,293.7c6.4,9.6,17.8,14.1,35.3,14.1h7.2c-8.3-2.9-14.4-8-18.4-14.1c-4.9-7.4-6.8-17.8-6.1-31.6h-24
			C176.1,275.9,178,286.3,182.9,293.7z"/>
	</g>
	<g>
		<path class="st1" d="M217.5,441.2c-49.5,0-99,0-148.5,0c-2.6,0-4.6,0.4-4.5-2.5c0.2-7.2,1.4-14.1,3.4-20.6
			c9.7-31.8,38.8-54.6,73.1-54.6C183.3,363.6,217.5,398,217.5,441.2L217.5,441.2z"/>
	</g>
	<g>
		<path class="st4" d="M198.3,441.2c-1.7,31.4-27.1,56.3-58.2,56.3s-56.6-25-58.2-56.3L198.3,441.2L198.3,441.2z"/>
	</g>
	<g>
		<path class="st4" d="M455.4,490.5c-27.7,6.4-55.2-10.9-61.6-38.6L494,428.8C500.4,456.5,483.1,484.1,455.4,490.5z"/>
	</g>
	<g>
		<path class="st5" d="M501.5,400.7c4.8,7,8.5,15.1,10.5,23.9l-10.5,2.4l-7.5,1.7l-100.2,23.1l-15.7,3.6c-1.4,0.3-2.2,0.8-2.5-0.4
			c-1-4.6-1.5-9.2-1.5-13.8c2.9-33.8,17.7-60.9,63-70.5C462.8,368.2,487.4,380.1,501.5,400.7L501.5,400.7z"/>
	</g>
	<g>
		<path class="st1" d="M374,441.2h-29.1c5.2-11.8,10.1-23.4,14.4-35.2c18.1-49.4,25.6-101.3-1.2-175.5l20.4-8.2l18.2,8.2l40.5,140
			L374,441.2z"/>
	</g>
	<g>
		<path class="st7" d="M311.8,73.5c2,5.1,3.1,10.8,3.1,16.6c0,25.3-20.5,45.9-45.8,45.9c-4.6,0-9.1-0.7-13.3-2l-10.1-51.4
			c0-7.2,13.8-18.8,18.6-19.3L311.8,73.5L311.8,73.5z"/>
	</g>
	<g>
		<path class="st1" d="M327.2,73.5h-15.3h-47.5c-4.8,0.4-8.5,1.9-8.5,9.1v51.4c-7.4-1.7-14-4.6-19.7-8.7
			c-15.9-11.1-24.6-30.3-24.6-51.9c0-32.7,25.9-59.1,57.8-59.1S327.2,40.9,327.2,73.5L327.2,73.5z"/>
	</g>
	<g>
		<path class="st3" d="M299.6,23.2c-2.5-0.4-5.1-0.5-7.7-0.5c-33.4,0-60.4,27.7-60.4,61.8c0,18.8,6.4,35.9,18.1,47.8
			c-4.9-1.7-9.4-4-13.4-6.8c-15.9-11.1-24.6-30.3-24.6-51.9c0-32.7,25.9-59.1,57.8-59.1C280.4,14.4,290.8,17.6,299.6,23.2
			L299.6,23.2z"/>
	</g>
	<g>
		<path class="st4" d="M330.6,406.1h-62.8c-4.7,0-7.9-0.4-7.9-6.3v-27.6h43.7C315.1,372.2,331.9,378.4,330.6,406.1z"/>
	</g>
	<g>
		<path class="st3" d="M344.9,441.2H355h10.5c5.2-11.8,10.1-23.4,14.4-35.2c18.1-49.4,25.6-101.3-1.2-175.5h-5.4c-0.1,0-0.1,0-0.2,0
			h-15c26.8,74.2,19.3,126,1.2,175.5C355,417.8,350.1,429.5,344.9,441.2z"/>
	</g>
	<g>
		<path class="st6" d="M374,441.2c0.1,4.6,0.6,9.2,1.5,13.8c0.3,1.3,1.1,0.8,2.5,0.4l15.7-3.6l3.1-0.7c-0.8-4-1.1-8-1.2-12
			l60.6-67.7c-6.2-1.1-12.7-1.4-19.2-0.8L374,441.2L374,441.2z"/>
	</g>
	<g>
		<path class="st2" d="M79.6,335.3c-10.6,18.4-19.1,40.5-11.7,82.9c3.2-10.5,8.5-20,15.4-28.1c1.8-11,1.9-14,6-23.2
			c4.7-10.6,10.4-15.8,22.5-15.8h148.1v-15.9L79.6,335.3L79.6,335.3z"/>
	</g>
	<g>
		<path class="st3" d="M83.3,390.1c-6.8,7.9-12,17.2-15.2,27.5c0,0,0,0,0,0c-0.1,0.2-0.1,0.4-0.2,0.6c-2,6.5-3.2,13.4-3.4,20.6
			c-0.1,2.8,1.8,2.5,4.5,2.5h12.8h18.5c-1.4-0.1-2.3-0.5-2.2-2.5c1.1-35.1,25.2-65.6,59.7-73.4c-5.4-1.2-11-1.8-16.8-1.8
			C118,363.6,97.3,373.8,83.3,390.1L83.3,390.1z"/>
	</g>
	<g>
		<path class="st8" d="M393.8,451.9c4.8,20.8,21.4,35.7,41.1,39.1c-9.7-7-16.9-17.5-19.8-30l3-0.7l77.1-17.7
			c0.2-4.5-0.2-9.1-1.3-13.7l-97.1,22.4L393.8,451.9z"/>
	</g>
	<g>
		<path class="st8" d="M100.4,441.2H81.8c1.3,25.1,17.9,46.1,40.4,53.5c-8.3-9.7-13.5-22.2-14.3-35.9h18.5h68.2
			c2-5.5,3.3-11.4,3.6-17.6L100.4,441.2L100.4,441.2z"/>
	</g>
	<g>
		<path class="st8" d="M79.6,335.3h39.6c-6.9,0-12.6-5.7-12.6-12.6v-29H67v29C67,329.6,72.7,335.3,79.6,335.3z"/>
	</g>
	<g>
		<path class="st9" d="M314.7,85.3c-0.4-4.1-1.4-8-2.9-11.7h-47.5c-4.8,0.4-8.5,1.9-8.5,9.1v51.4c3.6,1.1,7.4,1.7,11.3,1.9V94.4
			c0-7.2,3.7-8.7,8.5-9.2L314.7,85.3L314.7,85.3z"/>
	</g>
	<g>
		<path class="st0" d="M416.2,190.4v40.2h-19.5h-44c-1.8,0.8-4.8-23.6-2.2-26l54.6-18.1C412,184.2,416.2,182.4,416.2,190.4z"/>
	</g>
	<g>
		<path class="st7" d="M318.2,217l6.8-14.5l25.5,2c17.4,1.4,17,26,2.2,26h-23H325L318.2,217z"/>
	</g>
	<g>
		<path class="st1" d="M299.5,200.4l25.5,2.1v28.1h-41l-13-8.4l-25.8-16.7c-30.6-19.9-1.7-53.2,21.2-33.4l9.1,7.9L299.5,200.4z"/>
	</g>
	<g>
		<path class="st9" d="M329.6,230.6h23c7.9,0,11.8-7.1,10.9-13.9c-0.8,0.2-1.6,0.2-2.5,0.2h-23h-4.6h-2.9H325v13.6H329.6z"/>
	</g>
	<g>
		<path class="st3" d="M271,222.2l13,8.4h41V217h-32.6l-13-8.4l-5.7-3.7l-20.1-13c-10.5-6.8-14-15.2-13.1-22.5
			c-10.5,7.1-13.8,24.1,4.7,36.1L271,222.2z"/>
	</g>
	<g>
		<path class="st2" d="M350.5,204.5c8.1,0.7,12.3,6.3,13.1,12.2c0.8,6.8-3,13.9-10.9,13.9h5.4h20.6c4.7-10,1.2-25.4-6.2-33.3
			L350.5,204.5L350.5,204.5z"/>
	</g>
</g>
</svg>
