<?xml version="1.0" encoding="utf-8"?>
<!-- Generator: Adobe Illustrator 25.2.3, SVG Export Plug-In . SVG Version: 6.00 Build 0)  -->
<svg version="1.1" id="Flat" xmlns="http://www.w3.org/2000/svg" xmlns:xlink="http://www.w3.org/1999/xlink" x="0px" y="0px"
	 viewBox="0 0 512 512" style="enable-background:new 0 0 512 512;" xml:space="preserve">
<style type="text/css">
	.st0{fill:#FF7373;}
	.st1{fill:#E9F1F2;}
	.st2{fill:#ADE8F4;}
	.st3{fill:#EF5350;}
	.st4{fill:#D0D8DA;}
	.st5{fill:#656B76;}
	.st6{fill:#F9DBAF;}
	.st7{fill:#48CAE4;}
	.st8{fill:#EDB88E;}
	.st9{fill:#B8BEBF;}
	.st10{fill:#DA9367;}
	.st11{fill:#00B4D8;}
	.st12{fill:#E53935;}
	.st13{fill:#93999A;}
	.st14{fill:#0096C7;}
</style>
<g id="Color_copy">
	<g>
		<g>
			<path class="st0" d="M488,432v-76.2c0-12.1-6.8-23.2-17.7-28.6L424,304h-64v128H488z"/>
			<path class="st1" d="M360,432V184c0-8.8-7.2-16-16-16H40c-8.8,0-16,7.2-16,16v232c0,8.8,7.2,16,16,16H360z"/>
			<path class="st2" d="M424,304h-64v-80h64V304z"/>
			<path class="st0" d="M360,224h80c0-17.7-14.3-32-32-32h-48V224z"/>
			<path class="st0" d="M24,184v16h336v-16c0-8.8-7.2-16-16-16H40C31.2,168,24,175.2,24,184z"/>
			<path class="st3" d="M312,184H24v16h336v-16c0-8.8-7.2-16-16-16h-9.5C331.2,177.3,322.4,184,312,184z"/>
			<path class="st4" d="M256,392H24v24c0,8.8,7.2,16,16,16h320V200h-24v112C336,356.2,300.2,392,256,392z"/>
			<path class="st4" d="M56,368v-16h272v16c0,8.8-7.2,16-16,16H72C63.2,384,56,376.8,56,368z"/>
			<path class="st0" d="M56,360v-16h272v16c0,8.8-7.2,16-16,16H72C63.2,376,56,368.8,56,360z"/>
			<path class="st3" d="M296,360H56c0,8.8,7.2,16,16,16h240c8.8,0,16-7.2,16-16v-16h-16C312,352.8,304.8,360,296,360z"/>
			<circle class="st5" cx="128" cy="448" r="40"/>
			<circle class="st4" cx="128" cy="448" r="16"/>
			<path class="st6" d="M448,344c0,8.8,7.2,16,16,16h24v-4.2c0-12.1-6.8-23.2-17.7-28.6L448,316V344z"/>
			<path class="st7" d="M360,224v80h64v-24c-26.5,0-48-21.5-48-48h48v-8H360z"/>
			<path class="st3" d="M360,192v32h80c0-5.9-1.7-11.3-4.4-16H400c-10.4,0-19.2-6.7-22.5-16H360z"/>
			<path class="st3" d="M360,304v128h128v-40h-24c-48.6,0-88-39.4-88-88H360z"/>
			<circle class="st5" cx="416" cy="448" r="40"/>
			<circle class="st4" cx="416" cy="448" r="16"/>
			<path class="st8" d="M448,316v28c0,8.8,7.2,16,16,16h24v-4.2c0-1.5-0.1-3-0.3-4.4H473c-8.8,0-16-7.2-16-16v-14.8L448,316z"/>
			<path class="st9" d="M312,344H72V200h240V344z"/>
			<path class="st3" d="M72,224v-24h48v24c0,13.3-10.7,24-24,24S72,237.3,72,224z"/>
			<path class="st7" d="M120,224v-24h48v24c0,13.3-10.7,24-24,24S120,237.3,120,224z"/>
			<path class="st3" d="M168,224v-24h48v24c0,13.3-10.7,24-24,24S168,237.3,168,224z"/>
			<path class="st3" d="M264,224v-24h48v24c0,13.3-10.7,24-24,24C274.7,248,264,237.3,264,224z"/>
			<path class="st7" d="M216,224v-24h48v24c0,13.3-10.7,24-24,24S216,237.3,216,224z"/>
			<g>
				<g>
					<path class="st4" d="M256,316c-2.2,0-4-1.8-4-4v-21.5l-13.8-6.9c-2-1-2.8-3.4-1.8-5.4c1-2,3.4-2.8,5.4-1.8l16,8
						c1.4,0.7,2.2,2.1,2.2,3.6v24C260,314.2,258.2,316,256,316L256,316z"/>
				</g>
				<path class="st7" d="M248,344h24l8-40h-40L248,344z"/>
				<path class="st6" d="M144,328c0,8.8,7.2,16,16,16h32c8.8,0,16-7.2,16-16v-16h-64V328z"/>
				<path class="st6" d="M144,296c0-8.8,7.2-16,16-16h32c8.8,0,16,7.2,16,16v16h-64V296z"/>
				<path class="st8" d="M184,296h-40v16h64v-16c0-6-3.3-11.2-8.2-13.9C198.8,289.9,192.1,296,184,296z"/>
				<path class="st10" d="M176,328h-32c0,8.8,7.2,16,16,16h32c8.8,0,16-7.2,16-16v-16h-64v8h45.8C187,324.8,181.9,328,176,328z"/>
				<path class="st11" d="M244.7,327.4L248,344h24l8-40h-10C266.7,316.2,256.8,325.1,244.7,327.4z"/>
			</g>
			<path class="st12" d="M77.6,239.3c4.4,5.3,11,8.7,18.4,8.7c13.3,0,24-10.7,24-24v-24H72v8h24v8C96,227.3,88.2,236.7,77.6,239.3z"
				/>
			<path class="st11" d="M125.6,239.3c4.4,5.3,11,8.7,18.4,8.7c13.3,0,24-10.7,24-24v-24h-48v8h24v8
				C144,227.3,136.2,236.7,125.6,239.3z"/>
			<path class="st12" d="M173.6,239.3c4.4,5.3,11,8.7,18.4,8.7c13.3,0,24-10.7,24-24v-24h-48v8h24v8
				C192,227.3,184.2,236.7,173.6,239.3z"/>
			<path class="st12" d="M269.6,239.3c4.4,5.3,11,8.7,18.4,8.7c13.3,0,24-10.7,24-24v-24h-48v8h24v8
				C288,227.3,280.2,236.7,269.6,239.3z"/>
			<path class="st11" d="M221.6,239.3c4.4,5.3,11,8.7,18.4,8.7c13.3,0,24-10.7,24-24v-24h-48v8h24v8
				C240,227.3,232.2,236.7,221.6,239.3z"/>
			<circle class="st9" cx="128" cy="448" r="8"/>
			<circle class="st9" cx="416" cy="448" r="8"/>
			<path class="st11" d="M376,336c0-4.4,3.6-8,8-8h16c4.4,0,8,3.6,8,8s-3.6,8-8,8h-16C379.6,344,376,340.4,376,336z"/>
			<path class="st4" d="M419.2,302.4c1.4,1.1,3.1,1.6,4.8,1.6h0v-18l-27.2-20.4c-3.6-2.7-8.6-1.9-11.2,1.6
				c-2.6,3.5-1.9,8.6,1.6,11.2L419.2,302.4z"/>
			<path class="st9" d="M419.2,302.4c1.4,1.1,3.1,1.6,4.8,1.6h0v-18l-9.2-6.9c-10.1-2-19.1-7.1-25.8-14.4c-1.3,0.5-2.5,1.3-3.4,2.5
				c-2.6,3.5-1.9,8.6,1.6,11.2L419.2,302.4z"/>
			<path class="st13" d="M378.3,285.7c-3.1-3.1-3.1-8.2,0-11.3l16-16c3.1-3.1,8.2-3.1,11.3,0s3.1,8.2,0,11.3l-16,16
				c-1.6,1.6-3.6,2.3-5.7,2.3S379.9,287.2,378.3,285.7z"/>
			<path class="st5" d="M389.7,285.7l11.5-11.5c-4.8-2.6-9-6-12.6-10l-10.1,10.1c-3.1,3.1-3.1,8.2,0,11.3c1.6,1.6,3.6,2.3,5.7,2.3
				S388.1,287.2,389.7,285.7z"/>
			<path class="st14" d="M385.7,344c-2.4-4.7-4.4-9.5-5.9-14.6c-2.2,1.4-3.8,3.8-3.8,6.6c0,4.4,3.6,8,8,8H385.7z"/>
		</g>
		<g>
			<path class="st3" d="M120,112v-8c0-8.8,7.2-16,16-16h128c8.8,0,16,7.2,16,16v8c0,8.8-7.2,16-16,16H136
				C127.2,128,120,120.8,120,112z"/>
			<path class="st12" d="M120.2,114.2c1.1,7.8,7.7,13.8,15.8,13.8h128c8.8,0,16-7.2,16-16v-8c0-8.8-7.2-16-16-16H136
				c-5.9,0-11,3.2-13.8,8H160l18.2,18.2H120.2z M189.8,114.2L208,96h49v2.2c0,8.8-7.2,16-16,16H189.8z"/>
			<path class="st6" d="M104,136v-8h192v8c0,17.7-14.3,32-32,32H136C118.3,168,104,153.7,104,136z"/>
			<path class="st6" d="M104,88c0-53,43-64,96-64s96,11,96,64H104z"/>
			<path class="st6" d="M144,88h64l-32,32L144,88z"/>
			<g>
				<path class="st8" d="M107.8,64c-2.4,6.9-3.8,14.8-3.8,24h192c0-26.6-10.9-42.7-28.4-52C260,52.5,243.4,64,224,64H107.8z"/>
				<path class="st8" d="M115.7,146.9c-3.6,0-7-0.7-10.2-1.8c3.9,13.2,16,22.9,30.5,22.9h128c17.7,0,32-14.3,32-32v-8h-23.1
					c-5,11.1-16.2,18.9-29.2,18.9L115.7,146.9L115.7,146.9z"/>
				<circle class="st8" cx="152" cy="56" r="8"/>
				<circle class="st8" cx="176" cy="40" r="8"/>
				<circle class="st8" cx="224" cy="40" r="8"/>
			</g>
			<circle class="st10" cx="208" cy="72" r="8"/>
			<circle class="st10" cx="256" cy="64" r="8"/>
		</g>
	</g>
</g>
</svg>
