<?xml version="1.0" encoding="utf-8"?>
<!-- Generator: Adobe Illustrator 25.0.0, SVG Export Plug-In . SVG Version: 6.00 Build 0)  -->
<svg version="1.1" id="Layer_1" xmlns="http://www.w3.org/2000/svg" xmlns:xlink="http://www.w3.org/1999/xlink" x="0px" y="0px"
	 viewBox="0 0 743.7 206.8" style="enable-background:new 0 0 743.7 206.8;" xml:space="preserve">
<style type="text/css">
	.st0{fill:#E50F1C;}
	.st1{fill:#FCBB0B;}
	.st2{fill:none;}
</style>
<path class="st0" d="M225.3,89.9c-2.8-1.4-5.9-2.1-9-2c-2.5,0-4.9,0.4-7.2,1.2c-2.2,0.8-4.3,1.9-6,3.5c-1.8,1.6-3.2,3.6-4.2,5.7
	c-1-3.2-3.1-5.9-5.9-7.8c-3-1.8-6.5-2.8-10-2.7c-3.9-0.1-7.7,0.9-11,3c-3.2,2.1-5.6,5.2-6.9,8.8L164.5,89h-19v52.1h21.2v-27.4
	c-0.1-1.9,0.2-3.9,0.9-5.7c0.5-1.3,1.3-2.5,2.5-3.3c1.1-0.7,2.3-1.1,3.6-1.1c1.5-0.1,2.9,0.5,3.9,1.6c0.9,1.1,1.4,3,1.4,5.8v30H200
	v-27.5c-0.1-1.9,0.2-3.8,0.8-5.6c0.4-1.3,1.3-2.5,2.4-3.3c1.1-0.7,2.4-1.1,3.7-1.1c1.5-0.1,2.9,0.5,3.8,1.6c0.9,1.1,1.4,3,1.4,5.8
	v30h21.1v-35.2c0.1-3.4-0.6-6.8-2.1-9.8C229.8,93.4,227.8,91.3,225.3,89.9z"/>
<path class="st0" d="M292.9,125.4v-17.5c0.1-3.8-0.9-7.5-2.8-10.7c-2-3.1-5-5.5-8.5-6.8c-4.5-1.7-9.2-2.5-14-2.3
	c-8.1,0-14.4,1.6-18.8,4.8c-4.3,3-7,7.7-7.6,12.9l17.8,3.2c0.4-2.7,1.2-4.6,2.5-5.5c1.3-1,3-1.5,4.6-1.5c1.7-0.1,3.3,0.5,4.4,1.7
	c1.1,1.3,1.6,3,1.5,4.6v1.8l-17.2,3.6c-4.7,0.9-8.3,2.6-10.6,5c-2.4,2.5-3.6,5.9-3.5,9.4c-0.1,2.7,0.6,5.3,2,7.6
	c1.4,2.2,3.5,3.8,5.9,4.8c2.9,1.2,6.1,1.8,9.3,1.7c3.1,0,6.2-0.5,9.1-1.7c2.6-1,4.9-2.7,6.7-4.8c0.4-0.5,0.8-1.1,1.1-1.7
	c0.3,0.9,0.7,1.8,1.3,2.6c1.4,1.9,3.3,3.3,5.4,4.1c2.5,1,5.2,1.5,7.9,1.4c2.9,0.1,5.9-0.5,8.6-1.7l1-11.4c-0.8,0.3-1.6,0.5-2.4,0.4
	C294.2,129.5,292.9,128.1,292.9,125.4z M271.5,125.8c-0.3,0.8-0.8,1.5-1.4,2.1c-0.6,0.5-1.3,1-2,1.2c-0.8,0.3-1.7,0.4-2.5,0.4
	c-1.2,0-2.4-0.4-3.3-1.1c-0.9-0.7-1.4-1.9-1.4-3.1c-0.1-1.2,0.4-2.4,1.2-3.3c1.1-0.9,2.4-1.5,3.8-1.7l6.2-1.4v3.8
	C272.1,123.8,271.9,124.8,271.5,125.8z"/>
<path class="st0" d="M339.3,87.9c-3.7-0.2-7.3,1.1-10,3.5c-2.7,2.7-4.6,6-5.6,9.7L323.1,89h-18.8v52.1h21.1v-25.6
	c-0.1-2,0.4-4,1.5-5.7c1-1.5,2.4-2.7,4-3.4c1.8-0.8,3.7-1.2,5.6-1.1c1.3,0,2.6,0.1,3.9,0.3c0.9,0.2,1.8,0.4,2.7,0.7l1.9-17.1
	c-0.6-0.4-1.3-0.7-2-0.9C341.7,88,340.5,87.9,339.3,87.9z"/>
<polygon class="st0" points="411.3,89 388.3,89 370.9,109 370.9,67.5 349.8,67.5 349.8,141.1 370.9,141.1 370.9,130.2 378.4,121.4 
	389.2,141.1 412.4,141.1 392.4,109.5 "/>
<path class="st0" d="M454,91.1c-4.5-2.2-9.5-3.3-14.5-3.2c-5.1-0.1-10.1,1-14.7,3.2c-4.2,2-7.6,5.2-9.9,9.2
	c-2.5,4.5-3.7,9.6-3.5,14.7c-0.2,5.1,1.1,10.2,3.5,14.8c2.3,4,5.8,7.2,10,9.2c4.8,2.2,10.1,3.3,15.5,3.2c3.7,0,7.4-0.5,11-1.6
	c3.3-1,6.4-2.6,9-4.9c2.5-2.1,4.2-4.9,5-8l-16.9-5c-0.5,1.5-1.4,2.8-2.7,3.8c-1.6,1-3.4,1.4-5.3,1.3c-1.7,0.1-3.4-0.3-5-1
	c-1.5-0.9-2.6-2.2-3.1-3.8c-0.4-1.1-0.7-2.2-0.8-3.3h34.2c0.1-0.8,0.3-1.8,0.4-3s0.2-2.4,0.2-3.6c0.1-4.6-1-9.1-3.2-13.1
	C461,96.2,457.8,93.1,454,91.1z M434.9,103.4c1.4-0.9,2.9-1.3,4.5-1.2c2.3-0.2,4.5,1,5.6,3.1c0.8,1.6,1.2,3.4,1.4,5.2h-14.8
	c0.1-1,0.3-1.9,0.6-2.8C432.6,106,433.5,104.5,434.9,103.4z"/>
<path class="st0" d="M509.1,87.9c-3.7-0.2-7.3,1.1-10,3.5c-2.7,2.7-4.6,6-5.6,9.7L492.9,89H474v52.1h21.1v-25.6
	c-0.1-2,0.4-4,1.5-5.7c1-1.5,2.4-2.7,4-3.4c1.8-0.8,3.7-1.2,5.6-1.1c1.3,0,2.6,0.1,3.9,0.3c0.9,0.2,1.8,0.4,2.7,0.7l1.9-17.1
	c-0.6-0.4-1.3-0.7-2-0.9C511.5,88,510.3,87.9,509.1,87.9z"/>
<path class="st0" d="M568.8,125.4v-17.5c0.1-3.8-0.9-7.5-2.8-10.7c-2-3.1-5-5.5-8.5-6.8c-4.5-1.7-9.2-2.5-14-2.3
	c-8.1,0-14.4,1.6-18.8,4.8c-4.3,3-7,7.7-7.6,12.9l17.8,3.2c0.3-2.7,1.2-4.6,2.5-5.5c1.3-1,3-1.5,4.6-1.5c1.7-0.1,3.3,0.5,4.4,1.7
	c1.1,1.3,1.6,3,1.5,4.6v1.8l-17.2,3.6c-4.7,0.9-8.2,2.6-10.6,5c-2.4,2.5-3.6,5.9-3.5,9.4c-0.1,2.7,0.6,5.3,2,7.6
	c1.4,2.2,3.5,3.8,5.9,4.8c2.9,1.2,6.1,1.8,9.3,1.7c3.1,0,6.2-0.5,9.1-1.7c2.6-1,4.9-2.7,6.7-4.8c0.4-0.5,0.8-1.1,1.2-1.7
	c0.3,0.9,0.7,1.8,1.3,2.6c1.4,1.9,3.3,3.3,5.4,4.2c2.5,1,5.2,1.5,7.9,1.4c2.9,0.1,5.9-0.5,8.6-1.7l1-11.4c-0.8,0.3-1.6,0.5-2.4,0.4
	C570.1,129.5,568.8,128.1,568.8,125.4z M547.5,125.8c-0.3,0.8-0.8,1.5-1.4,2.1c-0.6,0.5-1.3,1-2,1.2c-0.8,0.3-1.6,0.4-2.5,0.4
	c-1.2,0-2.4-0.4-3.3-1.1c-0.9-0.7-1.5-1.9-1.4-3.1c-0.1-1.2,0.4-2.4,1.2-3.3c1.1-0.9,2.4-1.5,3.8-1.7l6.1-1.4v3.8
	C548,123.8,547.8,124.8,547.5,125.8z"/>
<path class="st0" d="M626.8,89.9c-2.8-1.4-6-2.1-9.1-2c-3.3-0.1-6.6,0.7-9.6,2.2c-2.8,1.5-5.1,3.7-6.7,6.4c-0.7,1.1-1.2,2.3-1.7,3.4
	l-0.5-11h-19v52.1h21.1v-27.6c-0.1-2,0.2-3.9,0.9-5.7c0.5-1.3,1.3-2.4,2.5-3.2c1.1-0.7,2.3-1,3.6-1c1.5-0.1,3,0.5,4,1.6
	c0.9,1.1,1.4,3.1,1.4,6v29.8h21.1v-35.2c0.1-3.4-0.6-6.8-2.1-9.8C631.4,93.4,629.3,91.3,626.8,89.9z"/>
<path class="st0" d="M680.5,127.4c-1.3,0.3-2.7,0.4-4,0.4c-1.8,0.1-3.5-0.4-4.8-1.6c-1.1-1-1.6-2.8-1.6-5.2v-17.6h14.2V89h-14.2
	V71.8L649,77.6V89h-8.6v14.5h8.6v21c0,4.3,0.8,7.8,2.4,10.3c1.7,2.6,4.2,4.6,7.1,5.6c3.6,1.3,7.5,1.9,11.3,1.8c2.8,0,5.6-0.4,8.3-1
	c2.4-0.5,4.7-1.4,6.8-2.8l-1.4-12.3C682.7,126.7,681.6,127.2,680.5,127.4z"/>
<path class="st0" d="M740.6,99.9c-2.1-3.8-5.3-6.8-9.2-8.8c-4.5-2.2-9.5-3.3-14.6-3.2c-5.1-0.1-10.1,1-14.7,3.2
	c-4.1,2-7.6,5.2-9.9,9.2c-2.5,4.5-3.7,9.6-3.5,14.7c-0.2,5.1,1.1,10.2,3.5,14.8c2.3,4,5.8,7.2,10,9.2c4.9,2.2,10.2,3.3,15.5,3.2
	c3.7,0,7.4-0.5,11-1.6c3.3-1,6.4-2.6,9-4.9c2.5-2.1,4.3-4.9,5.1-8l-16.9-5c-0.5,1.5-1.4,2.8-2.7,3.8c-1.6,1-3.4,1.4-5.2,1.3
	c-1.7,0.1-3.4-0.3-5-1c-1.5-0.9-2.6-2.2-3.1-3.9c-0.4-1.1-0.7-2.2-0.8-3.3h34.2c0.1-0.8,0.3-1.8,0.4-3s0.2-2.4,0.2-3.6
	C743.8,108.5,742.7,103.9,740.6,99.9z M712.3,103.4c1.3-0.9,2.9-1.3,4.5-1.2c2.3-0.2,4.5,1,5.6,3.1c0.8,1.6,1.3,3.4,1.4,5.2H709
	c0.1-1,0.3-1.9,0.6-2.8C710,106,710.9,104.5,712.3,103.4z"/>
<path class="st1" d="M36.4,43.8C50.8,28.5,69.6,15.6,95.6,6.7c7-2.4,14.6,1.3,17,8.2c2.3,6.7-1.1,14.1-7.6,16.8
	c-4.4,0.3-8.7,0.8-13,1.6C79.6,35.2,67.5,38.6,56,43.5c-11.2,4.9-21.6,11.4-30.9,19.3c-2.9,2.3-5.6,4.8-8.2,7.5
	C22.4,60.7,28.9,51.8,36.4,43.8z M32.6,40.2c7.8-8.3,16.6-15.6,26.2-21.7c2.3-1.6,4.7-3,7.2-4.4c-0.3-3.2-1.8-6.2-4.1-8.5
	C56.5,0.5,48,0.7,42.8,6C30.5,19,21.3,35,14.6,51.5C11,60.7,8.1,70.2,5.9,79.9c2.4-5,5-9.9,7.9-14.8C19.1,56.1,25.4,47.7,32.6,40.2
	L32.6,40.2z M98.9,135.8c-0.4-0.3-0.9-0.6-1.4-0.9l-6.9-2.1c-4.1-0.1-8,1.7-10.7,4.9c-0.2,0.3-0.5,0.5-0.8,0.8l0,0l-1.1,1.4
	c-0.7,1-1.9,1.4-3.1,1.1L30.9,128c-1.5-0.4-2.3-2-1.9-3.4l0.2-0.6c0.4-1.5,2-2.3,3.5-1.9l23.5,6.8c1.5,0.4,3-0.4,3.5-1.9l0.1-0.5
	c0.4-1.5-0.4-3-1.9-3.4l-23.5-6.8c-1.5-0.5-2.3-2-1.9-3.5c0,0,0,0,0,0l0.6-2.1c0.4-1.5,2-2.3,3.5-1.9l23.5,6.8c1.5,0.3,3-0.5,3.5-2
	l0.1-0.5c0.4-1.5-0.4-3-1.9-3.4l-23.5-6.8c-1.5-0.4-2.3-2-1.9-3.4l0.2-0.6c0.4-1.5,2-2.3,3.5-1.9l44.4,12.6c1.2,0.3,2,1.4,2,2.6
	l0.2,2.4c1.3,7.2,8,12,15.2,11c7.3-1.1,12.3-8,11.2-15.3c0,0,0,0,0,0c-1.7-10.6-6.4-20.6-13.5-28.7c-4.8-5.4-10.6-9.8-17.1-13
	c13.9-4,29.9-5.8,47.8-4.8c7.4,0.4,13.7-5.2,14.1-12.6c0.4-7.4-5.2-13.7-12.6-14.1c-28.4-1.5-53.1,3-73.6,11.8
	c-16.3,7-30.8,17.6-42.4,31.1c-3.2,3.4-6,7.1-8.3,11.2c-0.3,0.5-0.7,1-1.1,1.6c-0.7,1.1-1.2,2.3-1.5,3.5c-1.1,2.3-1.9,4.7-2.7,7.2
	c-4.2,14.5-2.5,30,4.8,43.2c7.3,13.2,19.4,23,33.9,27.2c10.7,3.1,22.2,3,32.8-0.4c10.6-3.3,20-9.7,27-18.3
	C105.5,149,104.7,140.5,98.9,135.8C98.9,135.8,98.9,135.8,98.9,135.8z"/>
<path class="st0" d="M60.1,175.8c-5.4,0-10.9-0.8-16.1-2.3c-14.7-4.3-27.1-14.3-34.6-27.8c-7.4-13.4-9.2-29.3-4.9-44
	c0.7-2.5,1.6-4.9,2.7-7.3c0.3-1.3,0.9-2.5,1.6-3.6c0.2-0.3,0.4-0.6,0.6-0.9l0.5-0.7c2.3-4.1,5.1-7.9,8.4-11.3
	C30,64.4,44.6,53.6,61,46.6c21.7-9.3,46.6-13.3,74.1-11.8c8,0.6,14,7.5,13.4,15.4C148,58,141.3,64,133.4,63.7
	c-15.1-1-30.2,0.4-44.8,4c5.6,3.1,10.7,7.2,15,12c7.2,8.3,12,18.4,13.7,29.2c1.2,7.9-4.2,15.3-12.1,16.6c-7.7,1.1-15-4.1-16.4-11.8
	l-0.2-2.6c0-0.8-0.5-1.4-1.3-1.6L43,96.9c-0.4-0.1-0.9-0.1-1.3,0.2c-0.4,0.2-0.7,0.6-0.8,1l-0.2,0.6c-0.1,0.4-0.1,0.9,0.2,1.3
	c0.2,0.4,0.6,0.7,1,0.8l23.5,6.8c1,0.3,1.8,1,2.3,1.8c0.5,0.9,0.6,1.9,0.3,2.9l-0.1,0.5c-0.6,2-2.7,3.2-4.7,2.8l-23.6-6.8
	c-0.4-0.1-0.9-0.1-1.3,0.2c-0.4,0.2-0.7,0.6-0.8,1l-0.6,2.1c-0.1,0.5-0.1,1,0.1,1.4c0.2,0.4,0.6,0.7,1,0.8l23.5,6.8
	c2.1,0.6,3.2,2.7,2.6,4.8l-0.1,0.5c-0.3,1-1,1.8-1.9,2.3c-0.9,0.5-1.9,0.6-2.9,0.3l-23.5-6.8c-0.9-0.2-1.8,0.3-2.1,1.2l-0.2,0.6
	c-0.3,0.9,0.3,1.8,1.2,2.1l44.3,13.1c0.7,0.2,1.5,0,1.9-0.7l1.1-1.5c0.1-0.1,0.1-0.1,0.2-0.2l0.2-0.2c0.1-0.1,0.2-0.2,0.3-0.4
	c2.8-3.4,7-5.4,11.5-5.3c0.1,0,0.2,0,0.3,0l6.9,2.1c0.1,0,0.2,0.1,0.3,0.1l0.3,0.2c0.4,0.2,0.8,0.5,1.2,0.8l0,0
	c6.2,5,7.1,14.2,2.1,20.4c0,0,0,0,0,0c-7.2,8.8-16.8,15.2-27.6,18.7C71.8,174.9,65.9,175.8,60.1,175.8z M124.2,36.6
	c-22.9,0-43.8,4-62.3,12c-16.2,6.9-30.5,17.4-42,30.8c-3.1,3.3-5.9,7-8.1,11c-0.2,0.3-0.4,0.6-0.5,0.8s-0.4,0.5-0.6,0.8
	c-0.6,1-1.1,2.1-1.4,3.2c-1,2.3-1.9,4.7-2.7,7.2c-4.2,14.2-2.5,29.4,4.7,42.4c7.1,12.9,19.1,22.5,33.3,26.7
	c10.5,3.1,21.7,2.9,32.2-0.4c10.4-3.3,19.6-9.5,26.5-17.9c4.3-5.3,3.5-13.1-1.8-17.4c0,0,0,0,0,0l0,0c-0.3-0.2-0.6-0.4-0.9-0.6
	l-0.2-0.1l-6.6-2h-0.1c-3.7,0-7.2,1.6-9.6,4.5c-0.2,0.2-0.3,0.4-0.5,0.6l-0.3,0.3l-0.1,0.1l-1,1.3c-0.9,1.4-2.7,2-4.2,1.5
	l-44.2-13.1c-2.1-0.6-3.2-2.7-2.6-4.8l0.2-0.6c0.6-2,2.7-3.2,4.8-2.6l23.5,6.8c0.4,0.1,0.9,0.1,1.3-0.2c0.4-0.2,0.7-0.6,0.8-1
	l0.1-0.5c0.3-0.9-0.3-1.9-1.2-2.1c0,0,0,0,0,0l-23.5-6.8c-1-0.3-1.8-1-2.3-1.9c-0.5-0.9-0.6-2-0.3-3l0.6-2.1c0.3-1,1-1.8,1.8-2.3
	c0.9-0.5,2-0.6,3-0.3l23.5,6.8c1,0.2,1.9-0.4,2.2-1.3l0.1-0.5c0.1-0.4,0.1-0.9-0.1-1.3c-0.2-0.4-0.6-0.7-1-0.8l-23.5-6.8
	c-1-0.3-1.8-1-2.3-1.9c-0.5-0.9-0.6-1.9-0.3-2.9l0.2-0.6c0.3-1,1-1.8,1.8-2.3c0.9-0.5,1.9-0.6,2.9-0.4l44.3,12.6
	c1.6,0.4,2.8,1.9,2.9,3.6l0.2,2.4c1.3,6.5,7.4,10.9,14,10c6.7-1.1,11.2-7.4,10.2-14.1c-1.7-10.4-6.3-20.2-13.2-28.2
	c-4.7-5.3-10.4-9.6-16.7-12.8c-0.4-0.2-0.6-0.6-0.6-1.1c0-0.4,0.4-0.8,0.8-0.9c14.5-4.2,30.7-5.8,48.2-4.9
	c6.7,0.5,12.4-4.6,12.9-11.2c0-0.1,0-0.2,0-0.3c0.4-6.8-4.7-12.6-11.5-13C131.3,36.7,127.8,36.6,124.2,36.6z M9.2,80.1
	c-0.1,0-0.2,0-0.3-0.1c-0.5-0.2-0.8-0.7-0.7-1.3c2.2-9.7,5.1-19.2,8.8-28.5c7.3-18.2,16.9-33.6,28.4-45.8C51-1.3,60.1-1.5,65.9,4
	c2.5,2.4,4.1,5.6,4.5,9.1c0,0.4-0.2,0.8-0.6,1c-2.8,1.5-5,2.9-7.1,4.3c-9.6,6-18.3,13.3-26,21.5l0,0C29.6,47.5,23.3,55.9,18,64.8
	c-2.8,4.8-5.4,9.7-7.8,14.7C10.1,79.8,9.7,80.1,9.2,80.1z M55.9,2.2c-3.4,0-6.6,1.4-9,3.8c-11.4,12-20.8,27.2-28,45.1
	c-2.5,6.5-4.6,12.8-6.3,18.9c1.2-2.1,2.4-4.2,3.6-6.2c5.4-9.1,11.7-17.5,19-25.2c7.8-8.4,16.7-15.8,26.4-21.9c1.9-1.3,4.1-2.6,6.6-4
	c-0.4-2.7-1.8-5.2-3.8-7.1C62.1,3.4,59.1,2.2,55.9,2.2z M35.9,39.3L35.9,39.3z M20.2,70.5c-0.2,0-0.5-0.1-0.7-0.2
	c-0.4-0.3-0.5-0.9-0.3-1.4c5.5-9.6,12.1-18.6,19.7-26.7C54.6,25.5,74.1,13.2,98.5,4.8c3.6-1.3,7.6-1.1,11,0.6
	c3.4,1.7,6.1,4.6,7.4,8.2c2.4,7.3-1.2,15.2-8.2,18.1c-0.1,0-0.2,0.1-0.3,0.1c-4.3,0.3-8.6,0.9-12.9,1.7
	c-12.3,1.9-24.3,5.2-35.7,10.1c-11.1,4.8-21.4,11.3-30.6,19.1c-2.9,2.3-5.6,4.8-8.2,7.4C20.8,70.4,20.5,70.5,20.2,70.5z M103.3,6.1
	c-1.4,0-2.7,0.2-4,0.7C75.2,15.2,56,27.2,40.5,43.6l0,0c-5.6,6-10.7,12.5-15.1,19.4c0.8-0.7,1.6-1.3,2.3-2
	c9.4-7.9,19.9-14.5,31.1-19.4c11.6-4.9,23.7-8.4,36.2-10.2c4.3-0.8,8.6-1.3,12.9-1.6c5.9-2.6,8.9-9.2,6.9-15.4
	c-1.1-3.1-3.3-5.6-6.3-7C106.9,6.6,105.1,6.2,103.3,6.1z M39.8,42.9L39.8,42.9z"/>
<rect class="st2" width="743.7" height="206.8"/>
</svg>
