<svg id="Flat" height="512" viewBox="0 0 64 64" width="512" xmlns="http://www.w3.org/2000/svg"><g id="Color_copy"><g><path d="m27 61h-20c-2.209 0-4-1.791-4-4v-36c0-2.209 1.791-4 4-4h20c2.209 0 4 1.791 4 4v36c0 2.209-1.791 4-4 4z" fill="#ade8f4"/><g fill="#48cae4"><path d="m27 53c-10.493 0-19-8.507-19-19v-17h-1c-2.209 0-4 1.791-4 4v36c0 2.209 1.791 4 4 4h20c2.209 0 4-1.791 4-4v-4z"/><path d="m15.919 45.332c2.577 4.464 8.286 5.994 12.75 3.416l2.021-1.167c.113-.065.213-.144.311-.224v-3.904l-.624-1.08c-.644-1.116-2.071-1.498-3.187-.854l-2.021 1.167c-1.116.644-2.543.262-3.187-.854l-4.667-8.083c-.644-1.116-.262-2.543.854-3.187l2.021-1.167c1.116-.644 1.498-2.071.854-3.187l-1.167-2.021c-.644-1.116-2.071-1.498-3.187-.854l-2.021 1.167c-4.464 2.577-5.994 8.286-3.416 12.75z"/></g><path d="m23.043 24.207-1.167-2.021c-.644-1.116-2.071-1.498-3.187-.854l-2.021 1.167c-4.464 2.577-5.994 8.286-3.416 12.75l4.667 8.083c2.577 4.464 8.286 5.994 12.75 3.416l2.021-1.167c1.116-.644 1.498-2.071.854-3.187l-1.167-2.021c-.644-1.116-2.071-1.498-3.187-.854l-2.021 1.167c-1.116.644-2.543.262-3.187-.854l-4.667-8.083c-.644-1.116-.262-2.543.854-3.187l2.021-1.167c1.115-.645 1.497-2.072.853-3.188z" fill="#e9f1f2"/><g><path d="m45 3c-8.837 0-16 7.163-16 16 0 1.8.311 3.524.859 5.139l-2.859 7.861 7.695-.77c2.785 2.349 6.377 3.77 10.305 3.77 8.837 0 16-7.163 16-16s-7.163-16-16-16z" fill="#ff7373"/><path d="m53 25c-9.389 0-17-7.611-17-17 0-.797.074-1.576.18-2.344-4.324 2.864-7.18 7.768-7.18 13.344 0 1.8.311 3.524.859 5.139l-2.859 7.861 7.695-.77c2.785 2.349 6.377 3.77 10.305 3.77 7.35 0 13.526-4.962 15.402-11.714-2.24 1.087-4.745 1.714-7.402 1.714z" fill="#ef5350"/><path d="m53 24h-4c-1.105 0-2-.895-2-2v-3c0-2.209 1.791-4 4-4 2.209 0 4 1.791 4 4v3c0 1.105-.895 2-2 2z" fill="#e9f1f2"/><path d="m49 18v-1c0-.586.133-1.139.36-1.64-1.389.627-2.36 2.017-2.36 3.64v3c0 1.105.895 2 2 2h4c1.105 0 2-.895 2-2h-2c-2.209 0-4-1.791-4-4z" fill="#d0d8da"/><path d="m53 24v8.86c-1.24.72-2.58 1.27-4 1.64v-10.5z" fill="#b8bebf"/><path d="m53 24v2c-1.1 0-2 .9-2 2v5.84c-.65.26-1.31.48-2 .66v-10.5z" fill="#b8bebf"/><path d="m53 25v1c-1.1 0-2 .9-2 2v5.84c-.05.02-.09.04-.14.05-.6.24-1.22.44-1.86.61v-9.97c1.28.31 2.62.47 4 .47z" fill="#93999a"/><path d="m52.911 11c-.235 0-.471-.082-.661-.249-2.015-1.774-4.589-2.751-7.25-2.751s-5.235.977-7.25 2.751c-.415.364-1.046.325-1.412-.09-.364-.415-.324-1.047.09-1.412 2.381-2.095 5.425-3.249 8.572-3.249s6.191 1.154 8.572 3.249c.414.365.454.997.09 1.412-.198.225-.474.339-.751.339z" fill="#e9f1f2"/><g><g fill="#e9f1f2"><path d="m39 21c-.553 0-1-.447-1-1v-5c0-.553.447-1 1-1s1 .447 1 1v5c0 .553-.447 1-1 1z"/><path d="m42 21c-.553 0-1-.447-1-1v-5c0-.553.447-1 1-1s1 .447 1 1v5c0 .553-.447 1-1 1z"/><path d="m41 24h-4c-1.105 0-2-.895-2-2v-3h8v3c0 1.105-.895 2-2 2z"/></g><path d="m43 21.74v.26c0 1.1-.9 2-2 2h-4c-1.1 0-2-.9-2-2v-3h5.05c.86 1.03 1.86 1.95 2.95 2.74z" fill="#d0d8da"/><path d="m37.141 19h-2.141v3c0 1.105.895 2 2 2h4c1.105 0 2-.895 2-2h-2c-1.862 0-3.412-1.278-3.859-3z" fill="#b8bebf"/><path d="m41 24v10.49c-1.42-.36-2.76-.92-4-1.64v-8.85z" fill="#b8bebf"/><path d="m41 24v2c-1.1 0-2 .9-2 2v5.83c-.69-.28-1.36-.61-2-.98v-8.85z" fill="#93999a"/><path d="m36 21c-.553 0-1-.447-1-1v-5c0-.553.447-1 1-1s1 .447 1 1v5c0 .553-.447 1-1 1z" fill="#b8bebf"/><path d="m39 21c.553 0 1-.447 1-1v-1.057c-.765-.907-1.437-1.893-2-2.948v4.005c0 .553.447 1 1 1z" fill="#d0d8da"/></g></g><path d="m32.668 43.748c-4.464 2.577-10.172 1.048-12.75-3.416l-4.667-8.083c-1.51-2.615-1.601-5.654-.527-8.244-2.903 2.915-3.628 7.511-1.473 11.244l4.667 8.083c2.577 4.464 8.286 5.994 12.75 3.416l2.021-1.167c.892-.515 1.305-1.529 1.109-2.486z" fill="#d0d8da"/><g><g><path d="m42 41h15c2.209 0 4 1.791 4 4v5c0 2.209-1.791 4-4 4h-9l-6 6v-6c-2.209 0-4-1.791-4-4v-5c0-2.209 1.791-4 4-4z" fill="#f9dbaf"/></g><path d="m49 49c-3.866 0-7-3.134-7-7v-1c-2.209 0-4 1.791-4 4v5c0 2.209 1.791 4 4 4v6l6-6h9c2.209 0 4-1.791 4-4v-1z" fill="#edb88e"/><path d="m53 46h-9c-.553 0-1-.447-1-1s.447-1 1-1h9c.553 0 1 .447 1 1s-.447 1-1 1z" fill="#48cae4"/><path d="m56 50h-7c-.553 0-1-.447-1-1s.447-1 1-1h7c.553 0 1 .447 1 1s-.447 1-1 1z" fill="#48cae4"/><g fill="#00b4d8"><circle cx="45" cy="49" r="1"/><path d="m49 49c-.335 0-.662-.032-.984-.077-.003.027-.016.05-.016.077 0 .553.447 1 1 1h7c.553 0 1-.447 1-1z"/></g></g><circle cx="7" cy="21" fill="#0096c7" r="1"/><circle cx="11" cy="21" fill="#00b4d8" r="1"/></g></g></svg>